<svg width="1508" height="347" viewBox="0 0 1508 347" fill="none" xmlns="http://www.w3.org/2000/svg">
<g clip-path="url(#clip0_2_2)">
<path fill-rule="evenodd" clip-rule="evenodd" d="M911.247 0.664062C925 0.664062 938.753 0.664062 952.505 0.664062C940.957 28.6943 932.664 59.9791 919.856 86.6446C906.628 86.6446 893.505 86.6446 880.277 86.6446C891.3 58.7193 900.119 28.4844 911.247 0.664062Z" fill="black"/>
<path fill-rule="evenodd" clip-rule="evenodd" d="M142.776 338.079H67.3985V109.638H0V47.9082H218.993L210.174 109.638H142.776V338.079Z" fill="black"/>
<path fill-rule="evenodd" clip-rule="evenodd" d="M750.316 338.079H675.149V109.638H607.75V47.9082H826.533L817.714 109.638H750.316V338.079Z" fill="black"/>
<path d="M1095.18 338.07H1022.85V207.472V118.342H1087.31V143.747C1098.22 128.315 1111.45 117.082 1131.5 117.082C1138.12 117.082 1148.09 118.342 1158.59 123.381L1141.79 181.751C1132.24 176.187 1124.26 175.872 1120.59 175.872C1105.68 175.872 1098.43 184.481 1095.18 191.2V338.07Z" fill="black"/>
<path fill-rule="evenodd" clip-rule="evenodd" d="M382.665 235.606C382.665 234.346 382.665 233.087 382.665 231.932C382.14 184.585 371.117 162.433 357.994 147.001C348.441 135.768 329.229 117.921 289.44 117.921C271.068 117.921 238.209 120.86 214.483 147.736C194.432 170.202 187.817 199.912 187.817 231.932C187.817 233.926 187.817 235.816 187.922 237.811C188.867 267.206 197.056 298.175 221.517 319.592C265.687 357.972 339.034 346.841 381.825 312.558L354.005 270.88C337.732 283.898 317.051 292.087 299.204 292.611C276.53 292.611 262.88 275.46 262.88 253.453H382.77V235.606H382.665ZM287.551 168.207C308.763 168.207 310.962 190.084 310.962 206.526H262.67C262.67 189.648 266.843 168.207 287.551 168.207Z" fill="black"/>
<path d="M541.082 224.062L605.542 123.279H520.821L500.349 177.03H499.929L474.25 123.279H387.356L454.052 226.057L380.039 338.073H468.644L496.149 280.648H497.095L521.975 338.178H614.045L541.082 224.062Z" fill="black"/>
<path fill-rule="evenodd" clip-rule="evenodd" d="M990.129 235.287C990.129 234.027 990.129 232.767 990.129 231.612C989.604 184.265 978.582 162.114 965.459 146.682C955.905 135.449 936.693 117.602 896.905 117.602C878.533 117.602 845.674 120.541 821.948 147.417C801.897 169.883 795.282 199.593 795.282 231.612C795.282 233.607 795.282 235.497 795.387 237.491C796.332 266.886 804.521 297.856 828.982 319.273C873.152 357.653 946.499 346.522 989.29 312.239L961.469 270.561C945.197 283.579 924.516 291.767 906.669 292.292C883.995 292.292 870.345 275.14 870.345 253.134H990.234V235.287H990.129ZM895.015 167.888C916.228 167.888 918.427 189.764 918.427 206.207H870.135C870.135 189.329 874.308 167.888 895.015 167.888Z" fill="black"/>
<path d="M1246.25 338.07H1173.91V207.472V118.342H1238.37V143.747C1249.29 128.315 1262.52 117.082 1282.57 117.082C1289.18 117.082 1299.16 118.342 1309.66 123.381L1292.86 181.751C1283.31 176.187 1275.33 175.872 1271.65 175.872C1256.75 175.872 1249.5 184.481 1246.25 191.2V338.07Z" fill="black"/>
<path fill-rule="evenodd" clip-rule="evenodd" d="M1491.75 266.577V264.477L1492.16 232.038L1492.69 190.36V190.357C1492.69 184.056 1492.69 167.892 1489.23 156.975C1486.5 147.737 1479.25 136.189 1462.66 127.895C1445.13 119.287 1426.34 117.922 1411.85 117.922C1388.97 117.922 1371.54 122.856 1358.63 127.475C1345.71 132.095 1330.28 139.128 1315.37 148.262L1341.52 193.194L1341.56 193.162C1343.47 191.727 1360.46 178.979 1379.41 173.668C1388.92 171.14 1409.94 166.167 1417.42 175.662L1417.43 175.684C1422.04 183.589 1420.15 195.154 1420.15 204.008C1388.27 202.186 1351.24 206.869 1328.6 231.828C1317.68 243.796 1312.96 258.388 1312.96 275.815C1312.96 295.867 1319.99 313.399 1331.96 324.947C1341.52 334.186 1357.89 343.214 1384.87 343.214C1403.67 343.214 1424.45 339.12 1440.3 325.367L1466.91 346.783L1508 306.663C1496.15 294.811 1491.75 284.045 1491.75 266.577ZM1420.04 286.629V248.94C1411.05 248.94 1400.96 248.948 1393.17 253.979C1386.64 258.045 1382.98 264.837 1382.98 272.448V272.456C1382.98 276.76 1383.93 281.275 1386.34 285.369C1390.65 291.983 1397.58 293.662 1403.14 293.662C1409.37 293.662 1415.63 291.043 1420.04 286.629Z" fill="black"/>
</g>
<defs>
<clipPath id="clip0_2_2">
<rect width="1508" height="347" fill="white"/>
</clipPath>
</defs>
</svg>
